# xmcd CD database file
#
# Track frame offsets:
#	150
#	64152
#	113106
#	135195
#	179496
#
# Disc length: 2631 seconds
#
# Revision: 0
# Processed by: cddbd v1.5.1PL2 Copyright (c) Steve Scherf et al.
# Submitted via: CDex 1.51
#
DISCID=3e0a4505
DTITLE=Miles Davis - Facing With You (Disc1)
DYEAR=1971
DGENRE=Jazz
TTITLE0=Directions
TTITLE1=Honky Tonk
TTITLE2=What I Say [Sivad]
TTITLE3=What I Say
TTITLE4=Sanctuary
EXTD=YEAR: 1971
EXTT0=
EXTT1=
EXTT2=
EXTT3=
EXTT4=
PLAYORDER=
